<svg width="34" height="34" viewBox="0 0 34 34" fill="none" xmlns="http://www.w3.org/2000/svg">
<path d="M17 0C7.62615 0 0 7.62615 0 17C0 26.3739 7.62615 34 17 34C26.3739 34 34 26.3739 34 17C34 7.62615 26.3739 0 17 0ZM28.2399 7.8396C30.2623 10.3105 31.4869 13.4576 31.5189 16.8849C31.0401 16.7837 26.2394 15.8099 21.4079 16.4175C21.0136 15.4551 20.6414 14.6083 20.1317 13.565C25.5005 11.373 27.9337 8.25371 28.2399 7.8396ZM26.6256 6.16044C26.3645 6.53246 24.1787 9.47037 19.0153 11.4057C16.6359 7.03396 13.9986 3.44257 13.5973 2.90515C18.2021 1.79515 23.0546 2.99221 26.6256 6.16044ZM10.8266 3.88121C11.2094 4.40622 13.8042 8.00206 16.2102 12.279C9.41793 14.0827 3.43551 14.0567 2.78608 14.0482C3.72766 9.54228 6.76422 5.79734 10.8266 3.88121ZM2.4794 17.0221C2.4794 16.8737 2.48234 16.7259 2.4868 16.5784C3.1221 16.5915 10.1587 16.6821 17.4102 14.512C17.8259 15.3255 18.223 16.1513 18.5874 16.9762C13.3367 18.4551 8.56608 22.7019 6.21233 26.7311C3.89314 24.1568 2.4794 20.7517 2.4794 17.0221ZM8.08713 28.4775C9.6039 25.3768 13.7203 21.3743 19.5744 19.3773C21.613 24.6749 22.4561 29.1148 22.672 30.3887C18.0031 32.3775 12.3888 31.8319 8.08713 28.4775ZM25.1132 29.0594C24.9644 28.1761 24.1915 23.9253 22.2923 18.7063C26.8425 17.9779 30.8403 19.1702 31.337 19.327C30.6898 23.3673 28.3707 26.8566 25.1132 29.0594Z" fill="#116AAC"/>
</svg>
