<svg width="33" height="27" viewBox="0 0 33 27" fill="none" xmlns="http://www.w3.org/2000/svg">
<path d="M29.6079 6.72888C29.6289 7.02418 29.6289 7.31954 29.6289 7.61484C29.6289 16.6218 22.8237 27 10.3858 27C6.55394 27 2.99431 25.882 0 23.9414C0.544438 24.0047 1.06786 24.0258 1.63325 24.0258C4.79501 24.0258 7.70559 22.95 10.0298 21.1149C7.05648 21.0516 4.56472 19.0899 3.7062 16.3898C4.12502 16.4531 4.54377 16.4953 4.98354 16.4953C5.59075 16.4953 6.19803 16.4109 6.76335 16.2633C3.66437 15.6304 1.34005 12.8883 1.34005 9.57655V9.49221C2.2404 9.99846 3.28744 10.3149 4.39714 10.357C2.57543 9.13354 1.38194 7.04528 1.38194 4.68277C1.38194 3.41716 1.71691 2.25701 2.30324 1.2445C5.63258 5.37887 10.6371 8.07883 16.2487 8.37419C16.144 7.86794 16.0812 7.34065 16.0812 6.81329C16.0812 3.05856 19.0964 0 22.8445 0C24.7919 0 26.5507 0.822654 27.7862 2.15156C29.3147 1.85626 30.7804 1.2867 32.0787 0.506254C31.5761 2.08832 30.5082 3.41723 29.1053 4.26092C30.4664 4.11334 31.7856 3.73356 33 3.20627C32.0788 4.55622 30.9271 5.75851 29.6079 6.72888Z" fill="#116AAC"/>
</svg>
