<svg width="39" height="39" viewBox="0 0 39 39" fill="none" xmlns="http://www.w3.org/2000/svg">
<path d="M9.50625 37.375C8.23333 37.375 7.14323 36.9214 6.23594 36.0141C5.32865 35.1068 4.875 34.0167 4.875 32.7437C4.875 31.4437 5.32865 30.3469 6.23594 29.4531C7.14323 28.5594 8.23333 28.1125 9.50625 28.1125C9.88542 28.1125 10.2172 28.1464 10.5016 28.2141C10.7859 28.2818 11.0771 28.3833 11.375 28.5187L14.8281 24.2125C14.3135 23.5896 13.9208 22.8786 13.65 22.0797C13.3792 21.2807 13.3115 20.4479 13.4469 19.5813L8.53125 17.9156C8.125 18.5927 7.5901 19.1208 6.92656 19.5C6.26302 19.8792 5.49792 20.0688 4.63125 20.0688C3.35833 20.0688 2.26823 19.6151 1.36094 18.7078C0.453646 17.8005 0 16.7104 0 15.4375C0 14.1375 0.453646 13.0406 1.36094 12.1469C2.26823 11.2531 3.35833 10.8063 4.63125 10.8063C5.93125 10.8063 7.02812 11.2531 7.92188 12.1469C8.81563 13.0406 9.2625 14.1375 9.2625 15.4375V15.6L14.2188 17.3062C14.7063 16.4396 15.2953 15.776 15.9859 15.3156C16.6766 14.8552 17.4417 14.5302 18.2812 14.3406V9.1C17.225 8.80208 16.3922 8.21979 15.7828 7.35313C15.1734 6.48646 14.8687 5.57917 14.8687 4.63125C14.8687 3.33125 15.3224 2.23438 16.2297 1.34062C17.137 0.446875 18.2271 0 19.5 0C20.8 0 21.8969 0.446875 22.7906 1.34062C23.6844 2.23438 24.1313 3.33125 24.1313 4.63125C24.1313 5.57917 23.8198 6.48646 23.1969 7.35313C22.574 8.21979 21.7479 8.80208 20.7188 9.1V14.3406C21.5583 14.5302 22.3302 14.8552 23.0344 15.3156C23.7385 15.776 24.3344 16.4396 24.8219 17.3062L29.7375 15.6V15.4375C29.7375 14.1375 30.1911 13.0406 31.0984 12.1469C32.0057 11.2531 33.0958 10.8063 34.3687 10.8063C35.6688 10.8063 36.7656 11.2531 37.6594 12.1469C38.5531 13.0406 39 14.1375 39 15.4375C39 16.7104 38.5531 17.8005 37.6594 18.7078C36.7656 19.6151 35.6688 20.0688 34.3687 20.0688C33.5021 20.0688 32.7302 19.8792 32.0531 19.5C31.376 19.1208 30.8479 18.5927 30.4688 17.9156L25.5531 19.5813C25.6885 20.4479 25.6276 21.2807 25.3703 22.0797C25.113 22.8786 24.7135 23.5896 24.1719 24.2125L27.625 28.5187C27.9229 28.3833 28.2141 28.2818 28.4984 28.2141C28.7828 28.1464 29.1146 28.1125 29.4937 28.1125C30.7937 28.1125 31.8906 28.5594 32.7844 29.4531C33.6781 30.3469 34.125 31.4437 34.125 32.7437C34.125 34.0167 33.6781 35.1068 32.7844 36.0141C31.8906 36.9214 30.7937 37.375 29.4937 37.375C28.2208 37.375 27.1307 36.9214 26.2234 36.0141C25.3161 35.1068 24.8625 34.0167 24.8625 32.7437C24.8625 32.2021 24.937 31.7146 25.0859 31.2812C25.2349 30.8479 25.4448 30.4281 25.7156 30.0219L22.2625 25.7156C21.3958 26.176 20.4682 26.4062 19.4797 26.4062C18.4911 26.4062 17.5635 26.176 16.6969 25.7156L13.2844 30.0625C13.5552 30.4688 13.7651 30.8818 13.9141 31.3016C14.063 31.7214 14.1375 32.2021 14.1375 32.7437C14.1375 34.0167 13.6906 35.1068 12.7969 36.0141C11.9031 36.9214 10.8062 37.375 9.50625 37.375ZM4.63125 17.6313C5.25417 17.6313 5.77552 17.4214 6.19531 17.0016C6.6151 16.5818 6.825 16.0604 6.825 15.4375C6.825 14.8146 6.6151 14.2932 6.19531 13.8734C5.77552 13.4536 5.25417 13.2437 4.63125 13.2437C4.00833 13.2437 3.48698 13.4536 3.06719 13.8734C2.6474 14.2932 2.4375 14.8146 2.4375 15.4375C2.4375 16.0604 2.6474 16.5818 3.06719 17.0016C3.48698 17.4214 4.00833 17.6313 4.63125 17.6313ZM9.50625 34.9375C10.1292 34.9375 10.6505 34.7276 11.0703 34.3078C11.4901 33.888 11.7 33.3667 11.7 32.7437C11.7 32.1208 11.4901 31.5995 11.0703 31.1797C10.6505 30.7599 10.1292 30.55 9.50625 30.55C8.88333 30.55 8.36198 30.7599 7.94219 31.1797C7.5224 31.5995 7.3125 32.1208 7.3125 32.7437C7.3125 33.3667 7.5224 33.888 7.94219 34.3078C8.36198 34.7276 8.88333 34.9375 9.50625 34.9375ZM19.5 6.825C20.1229 6.825 20.6443 6.6151 21.0641 6.19531C21.4839 5.77552 21.6938 5.25417 21.6938 4.63125C21.6938 4.00833 21.4839 3.48698 21.0641 3.06719C20.6443 2.6474 20.1229 2.4375 19.5 2.4375C18.8771 2.4375 18.3557 2.6474 17.9359 3.06719C17.5161 3.48698 17.3062 4.00833 17.3062 4.63125C17.3062 5.25417 17.5161 5.77552 17.9359 6.19531C18.3557 6.6151 18.8771 6.825 19.5 6.825ZM19.5406 23.9688C20.5427 23.9688 21.3958 23.6099 22.1 22.8922C22.8042 22.1745 23.1562 21.301 23.1562 20.2719C23.1562 19.2698 22.8042 18.4167 22.1 17.7125C21.3958 17.0083 20.5292 16.6562 19.5 16.6562C18.4979 16.6562 17.638 17.0083 16.9203 17.7125C16.2026 18.4167 15.8438 19.2833 15.8438 20.3125C15.8438 21.3146 16.2026 22.1745 16.9203 22.8922C17.638 23.6099 18.5115 23.9688 19.5406 23.9688ZM29.4937 34.9375C30.1167 34.9375 30.638 34.7276 31.0578 34.3078C31.4776 33.888 31.6875 33.3667 31.6875 32.7437C31.6875 32.1208 31.4776 31.5995 31.0578 31.1797C30.638 30.7599 30.1167 30.55 29.4937 30.55C28.8708 30.55 28.3495 30.7599 27.9297 31.1797C27.5099 31.5995 27.3 32.1208 27.3 32.7437C27.3 33.3667 27.5099 33.888 27.9297 34.3078C28.3495 34.7276 28.8708 34.9375 29.4937 34.9375ZM34.3687 17.6313C34.9917 17.6313 35.513 17.4214 35.9328 17.0016C36.3526 16.5818 36.5625 16.0604 36.5625 15.4375C36.5625 14.8146 36.3526 14.2932 35.9328 13.8734C35.513 13.4536 34.9917 13.2437 34.3687 13.2437C33.7458 13.2437 33.2245 13.4536 32.8047 13.8734C32.3849 14.2932 32.175 14.8146 32.175 15.4375C32.175 16.0604 32.3849 16.5818 32.8047 17.0016C33.2245 17.4214 33.7458 17.6313 34.3687 17.6313Z" fill="#116AAC"/>
</svg>
