<svg width="48" height="48" viewBox="0 0 48 48" fill="none" xmlns="http://www.w3.org/2000/svg">
<path d="M7.34988 38C6.08321 38 5.09155 37.575 4.37488 36.725C3.65821 35.875 3.39988 34.7 3.59988 33.2L5.99988 16.45C6.26655 14.6833 7.09155 13.1667 8.47488 11.9C9.85821 10.6333 11.4332 10 13.1999 10H34.8499C36.6165 10 38.1915 10.6333 39.5749 11.9C40.9582 13.1667 41.7832 14.6833 42.0499 16.45L44.3999 33.2C44.5999 34.7 44.3415 35.875 43.6249 36.725C42.9082 37.575 41.9165 38 40.6499 38C39.8832 38 39.2332 37.875 38.6999 37.625C38.1665 37.375 37.7165 37.0667 37.3499 36.7L32.1499 31.5H15.8499L10.6499 36.7C10.2832 37.0667 9.83321 37.375 9.29988 37.625C8.76655 37.875 8.11654 38 7.34988 38ZM8.24988 34.8L14.5499 28.5H33.4499L39.7499 34.8C39.9165 34.9667 40.2165 35.1167 40.6499 35.25C40.9499 35.25 41.1749 35.1 41.3249 34.8C41.4749 34.5 41.5165 34.2 41.4499 33.9L39.0499 16.95C38.8832 15.7833 38.3915 14.8333 37.5749 14.1C36.7582 13.3667 35.8499 13 34.8499 13H13.1499C12.1499 13 11.2415 13.3667 10.4249 14.1C9.60821 14.8333 9.11654 15.7833 8.94988 16.95L6.54988 33.9C6.48321 34.2 6.52488 34.5 6.67488 34.8C6.82488 35.1 7.04988 35.25 7.34988 35.25C7.58321 35.25 7.88321 35.1 8.24988 34.8ZM34.9999 26C35.5332 26 35.9999 25.8 36.3999 25.4C36.7999 25 36.9999 24.5333 36.9999 24C36.9999 23.4667 36.7999 23 36.3999 22.6C35.9999 22.2 35.5332 22 34.9999 22C34.4665 22 33.9999 22.2 33.5999 22.6C33.1999 23 32.9999 23.4667 32.9999 24C32.9999 24.5333 33.1999 25 33.5999 25.4C33.9999 25.8 34.4665 26 34.9999 26ZM30.7499 19.5C31.2832 19.5 31.7499 19.3 32.1499 18.9C32.5499 18.5 32.7499 18.0333 32.7499 17.5C32.7499 16.9667 32.5499 16.5 32.1499 16.1C31.7499 15.7 31.2832 15.5 30.7499 15.5C30.2165 15.5 29.7499 15.7 29.3499 16.1C28.9499 16.5 28.7499 16.9667 28.7499 17.5C28.7499 18.0333 28.9499 18.5 29.3499 18.9C29.7499 19.3 30.2165 19.5 30.7499 19.5ZM14.9999 25.75H17.4999V22H21.2499V19.5H17.4999V15.75H14.9999V19.5H11.2499V22H14.9999V25.75Z" fill="#116AAC"/>
</svg>
