<svg width="48" height="48" viewBox="0 0 48 48" fill="none" xmlns="http://www.w3.org/2000/svg">
<path d="M2 36.05C2.26667 32.5167 3.35 29.2417 5.25 26.225C7.15 23.2083 9.66667 20.8167 12.8 19.05L9.05 12.6C8.95 12.3 8.94167 12 9.025 11.7C9.10833 11.4 9.28333 11.1667 9.55 11C9.85 10.8333 10.175 10.8 10.525 10.9C10.875 11 11.1333 11.2 11.3 11.5L15 17.85C17.8667 16.6167 20.8667 16 24 16C27.1333 16 30.1333 16.6167 33 17.85L36.75 11.5C36.9167 11.2 37.175 11 37.525 10.9C37.875 10.8 38.2 10.8333 38.5 11C38.7667 11.1667 38.9583 11.4083 39.075 11.725C39.1917 12.0417 39.1667 12.3333 39 12.6L35.2 19.05C38.3333 20.8167 40.85 23.2083 42.75 26.225C44.65 29.2417 45.7333 32.5167 46 36.05H2ZM14 30.55C14.6667 30.55 15.25 30.3 15.75 29.8C16.25 29.3 16.5 28.7167 16.5 28.05C16.5 27.3833 16.25 26.8 15.75 26.3C15.25 25.8 14.6667 25.55 14 25.55C13.3333 25.55 12.75 25.8 12.25 26.3C11.75 26.8 11.5 27.3833 11.5 28.05C11.5 28.7167 11.75 29.3 12.25 29.8C12.75 30.3 13.3333 30.55 14 30.55ZM34 30.55C34.6667 30.55 35.25 30.3 35.75 29.8C36.25 29.3 36.5 28.7167 36.5 28.05C36.5 27.3833 36.25 26.8 35.75 26.3C35.25 25.8 34.6667 25.55 34 25.55C33.3333 25.55 32.75 25.8 32.25 26.3C31.75 26.8 31.5 27.3833 31.5 28.05C31.5 28.7167 31.75 29.3 32.25 29.8C32.75 30.3 33.3333 30.55 34 30.55Z" fill="#116AAC"/>
</svg>
