<svg width="48" height="48" viewBox="0 0 48 48" fill="none" xmlns="http://www.w3.org/2000/svg">
<path d="M17.8999 46C17.3666 46 16.9166 45.8167 16.5499 45.45C16.1832 45.0833 15.9999 44.6333 15.9999 44.1V19.9C15.9999 19.3667 16.1832 18.9167 16.5499 18.55C16.9166 18.1833 17.3666 18 17.8999 18H30.0999C30.6332 18 31.0832 18.1833 31.4499 18.55C31.8166 18.9167 31.9999 19.3667 31.9999 19.9V44.1C31.9999 44.6333 31.8166 45.0833 31.4499 45.45C31.0832 45.8167 30.6332 46 30.0999 46H17.8999ZM23.9999 28.1C24.5666 28.1 25.0582 27.8917 25.4749 27.475C25.8916 27.0583 26.0999 26.5667 26.0999 26C26.0999 25.4 25.8999 24.8833 25.4999 24.45C25.0999 24.0167 24.5999 23.8 23.9999 23.8C23.3999 23.8 22.8832 24.0167 22.4499 24.45C22.0166 24.8833 21.7999 25.4 21.7999 26C21.7999 26.6 22.0166 27.1 22.4499 27.5C22.8832 27.9 23.3999 28.1 23.9999 28.1ZM16.1999 14.2L14.0999 12.1C15.4332 10.7667 16.9499 9.75 18.6499 9.05C20.3499 8.35 22.1332 8 23.9999 8C25.8666 8 27.6499 8.35 29.3499 9.05C31.0499 9.75 32.5666 10.7667 33.8999 12.1L31.7999 14.2C30.7332 13.1667 29.5332 12.375 28.1999 11.825C26.8666 11.275 25.4666 11 23.9999 11C22.5332 11 21.1332 11.275 19.7999 11.825C18.4666 12.375 17.2666 13.1667 16.1999 14.2ZM10.4999 8.55L8.3999 6.4C10.4999 4.36667 12.8916 2.79167 15.5749 1.675C18.2582 0.558333 21.0666 0 23.9999 0C26.9332 0 29.7416 0.558333 32.4249 1.675C35.1082 2.79167 37.4666 4.4 39.4999 6.5L37.3499 8.6C35.5832 6.8 33.5416 5.41667 31.2249 4.45C28.9082 3.48333 26.4999 3 23.9999 3C21.4666 3 19.0332 3.475 16.6999 4.425C14.3666 5.375 12.2999 6.75 10.4999 8.55ZM18.9999 43H28.9999V21H18.9999V43Z" fill="#116AAC"/>
</svg>
