<svg width="48" height="48" viewBox="0 0 48 48" fill="none" xmlns="http://www.w3.org/2000/svg">
<path d="M18.85 29.15V18.9H29.1V29.15H18.85ZM21.85 26.15H26.1V21.9H21.85V26.15ZM18 42V38H13C12.2 38 11.5 37.7 10.9 37.1C10.3 36.5 10 35.8 10 35V30H6V27H10V20.8H6V17.8H10V12.8C10 12 10.3 11.3 10.9 10.7C11.5 10.1 12.2 9.8 13 9.8H18V6H21V9.8H27.2V6H30.2V9.8H35.2C36 9.8 36.7 10.1 37.3 10.7C37.9 11.3 38.2 12 38.2 12.8V17.8H42V20.8H38.2V27H42V30H38.2V35C38.2 35.8 37.9 36.5 37.3 37.1C36.7 37.7 36 38 35.2 38H30.2V42H27.2V38H21V42H18ZM35.2 35V12.8H13V35H35.2Z" fill="#116AAC"/>
</svg>
