<svg width="39" height="39" viewBox="0 0 39 39" fill="none" xmlns="http://www.w3.org/2000/svg">
<path d="M10.5625 37.375C9.9125 37.375 9.34375 37.1312 8.85625 36.6437C8.36875 36.1562 8.125 35.5875 8.125 34.9375V4.0625C8.125 3.4125 8.36875 2.84375 8.85625 2.35625C9.34375 1.86875 9.9125 1.625 10.5625 1.625H28.4375C29.0875 1.625 29.6562 1.86875 30.1437 2.35625C30.6312 2.84375 30.875 3.4125 30.875 4.0625V34.9375C30.875 35.5875 30.6312 36.1562 30.1437 36.6437C29.6562 37.1312 29.0875 37.375 28.4375 37.375H10.5625ZM10.5625 31.2812V34.9375H28.4375V31.2812H10.5625ZM19.5 34.3281C19.8521 34.3281 20.1432 34.213 20.3734 33.9828C20.6036 33.7526 20.7188 33.4615 20.7188 33.1094C20.7188 32.7573 20.6036 32.4661 20.3734 32.2359C20.1432 32.0057 19.8521 31.8906 19.5 31.8906C19.1479 31.8906 18.8568 32.0057 18.6266 32.2359C18.3964 32.4661 18.2812 32.7573 18.2812 33.1094C18.2812 33.4615 18.3964 33.7526 18.6266 33.9828C18.8568 34.213 19.1479 34.3281 19.5 34.3281ZM10.5625 28.8438H28.4375V7.71875H10.5625V28.8438ZM10.5625 5.28125H28.4375V4.0625H10.5625V5.28125Z" fill="#116AAC"/>
</svg>
