<svg width="48" height="48" viewBox="0 0 48 48" fill="none" xmlns="http://www.w3.org/2000/svg">
<path d="M11.3 30.9C13.4 30.6333 15.5083 30.4167 17.625 30.25C19.7417 30.0833 21.8667 30 24 30C26.1333 30 28.2583 30.0833 30.375 30.25C32.4917 30.4167 34.6 30.6333 36.7 30.9L28.4 20.25L22.2 28.2L17.85 22.6L11.3 30.9ZM6 40C5.43333 40 4.95833 39.8083 4.575 39.425C4.19167 39.0417 4 38.5667 4 38V10C4 9.43333 4.19167 8.95833 4.575 8.575C4.95833 8.19167 5.43333 8 6 8C6.26667 8 6.85833 8.15833 7.775 8.475C8.69167 8.79167 9.91667 9.13333 11.45 9.5C12.9833 9.86667 14.7917 10.2083 16.875 10.525C18.9583 10.8417 21.3333 11 24 11C26.6667 11 29.0417 10.8417 31.125 10.525C33.2083 10.2083 35.0167 9.86667 36.55 9.5C38.0833 9.13333 39.3083 8.79167 40.225 8.475C41.1417 8.15833 41.7333 8 42 8C42.5667 8 43.0417 8.19167 43.425 8.575C43.8083 8.95833 44 9.43333 44 10V38C44 38.5667 43.8083 39.0417 43.425 39.425C43.0417 39.8083 42.5667 40 42 40C41.7333 40 41.1417 39.8417 40.225 39.525C39.3083 39.2083 38.0833 38.8667 36.55 38.5C35.0167 38.1333 33.2083 37.7917 31.125 37.475C29.0417 37.1583 26.6667 37 24 37C21.3333 37 18.9583 37.1583 16.875 37.475C14.7917 37.7917 12.9833 38.1333 11.45 38.5C9.91667 38.8667 8.69167 39.2083 7.775 39.525C6.85833 39.8417 6.26667 40 6 40ZM7 36.65C9.73333 35.6833 12.525 35 15.375 34.6C18.225 34.2 21.1 34 24 34C26.9 34 29.775 34.2 32.625 34.6C35.475 35 38.2667 35.6833 41 36.65V11.4C38.2667 12.3333 35.475 13 32.625 13.4C29.775 13.8 26.9 14 24 14C21.1 14 18.225 13.8 15.375 13.4C12.525 13 9.73333 12.3333 7 11.4V36.65Z" fill="#116AAC"/>
</svg>
