<svg width="34" height="30" viewBox="0 0 34 30" fill="none" xmlns="http://www.w3.org/2000/svg">
<path d="M32.5635 7.52049C32.1927 6.13475 31.1003 5.04338 29.7134 4.67301C27.1994 4 17.1185 4 17.1185 4C17.1185 4 7.03777 4 4.52372 4.67301C3.13675 5.04344 2.04438 6.13475 1.67362 7.52049C1 10.0322 1 15.2727 1 15.2727C1 15.2727 1 20.5132 1.67362 23.025C2.04438 24.4107 3.13675 25.4566 4.52372 25.827C7.03777 26.5 17.1185 26.5 17.1185 26.5C17.1185 26.5 27.1993 26.5 29.7134 25.827C31.1003 25.4566 32.1927 24.4107 32.5635 23.025C33.2371 20.5132 33.2371 15.2727 33.2371 15.2727C33.2371 15.2727 33.2371 10.0322 32.5635 7.52049ZM13.8215 20.0307V10.5147L22.2471 15.2729L13.8215 20.0307Z" fill="#116AAC"/>
</svg>
